<mxfile host="app.diagrams.net" agent="Mozilla/5.0 (Windows NT 10.0; Win64; x64) AppleWebKit/537.36 (KHTML, like Gecko) Chrome/135.0.0.0 Safari/537.36" version="26.2.14">
  <diagram name="PÃ¡gina-1" id="tphUHUgJMb4d21gBHX4j">
    <mxGraphModel dx="1025" dy="425" grid="1" gridSize="10" guides="1" tooltips="1" connect="1" arrows="1" fold="1" page="1" pageScale="1" pageWidth="827" pageHeight="1169" math="0" shadow="0">
      <root>
        <mxCell id="0" />
        <mxCell id="1" parent="0" />
        <mxCell id="PaktWG8LnVJk3cDpF99z-28" style="edgeStyle=orthogonalEdgeStyle;rounded=0;orthogonalLoop=1;jettySize=auto;html=1;entryX=0.5;entryY=0;entryDx=0;entryDy=0;" parent="1" source="PaktWG8LnVJk3cDpF99z-1" target="PaktWG8LnVJk3cDpF99z-15" edge="1">
          <mxGeometry relative="1" as="geometry" />
        </mxCell>
        <mxCell id="PaktWG8LnVJk3cDpF99z-1" value="inicio" style="ellipse;whiteSpace=wrap;html=1;" parent="1" vertex="1">
          <mxGeometry x="340" y="10" width="120" height="80" as="geometry" />
        </mxCell>
        <mxCell id="PaktWG8LnVJk3cDpF99z-32" style="edgeStyle=orthogonalEdgeStyle;rounded=0;orthogonalLoop=1;jettySize=auto;html=1;entryX=0.5;entryY=0;entryDx=0;entryDy=0;" parent="1" source="PaktWG8LnVJk3cDpF99z-3" target="PaktWG8LnVJk3cDpF99z-18" edge="1">
          <mxGeometry relative="1" as="geometry" />
        </mxCell>
        <mxCell id="PaktWG8LnVJk3cDpF99z-3" value="producto1 = &quot;1. Guantes de calavera&quot;" style="rounded=0;whiteSpace=wrap;html=1;" parent="1" vertex="1">
          <mxGeometry x="338.75" y="310" width="120" height="40" as="geometry" />
        </mxCell>
        <mxCell id="PaktWG8LnVJk3cDpF99z-34" style="edgeStyle=orthogonalEdgeStyle;rounded=0;orthogonalLoop=1;jettySize=auto;html=1;exitX=0.5;exitY=1;exitDx=0;exitDy=0;entryX=0.5;entryY=0;entryDx=0;entryDy=0;" parent="1" source="PaktWG8LnVJk3cDpF99z-4" target="PaktWG8LnVJk3cDpF99z-20" edge="1">
          <mxGeometry relative="1" as="geometry" />
        </mxCell>
        <mxCell id="PaktWG8LnVJk3cDpF99z-4" value="producto2 = &quot;2. Pijama de hello kitty&quot;" style="rounded=0;whiteSpace=wrap;html=1;" parent="1" vertex="1">
          <mxGeometry x="340" y="410" width="120" height="40" as="geometry" />
        </mxCell>
        <mxCell id="PaktWG8LnVJk3cDpF99z-40" style="edgeStyle=orthogonalEdgeStyle;rounded=0;orthogonalLoop=1;jettySize=auto;html=1;exitX=0.5;exitY=1;exitDx=0;exitDy=0;entryX=0.5;entryY=0;entryDx=0;entryDy=0;" parent="1" source="PaktWG8LnVJk3cDpF99z-5" target="PaktWG8LnVJk3cDpF99z-21" edge="1">
          <mxGeometry relative="1" as="geometry" />
        </mxCell>
        <mxCell id="PaktWG8LnVJk3cDpF99z-5" value="producto5 = &quot;5. Collar de flor&quot;" style="rounded=0;whiteSpace=wrap;html=1;" parent="1" vertex="1">
          <mxGeometry x="338.75" y="800" width="120" height="60" as="geometry" />
        </mxCell>
        <mxCell id="PaktWG8LnVJk3cDpF99z-36" style="edgeStyle=orthogonalEdgeStyle;rounded=0;orthogonalLoop=1;jettySize=auto;html=1;exitX=0.5;exitY=1;exitDx=0;exitDy=0;entryX=0.5;entryY=0;entryDx=0;entryDy=0;" parent="1" source="PaktWG8LnVJk3cDpF99z-6" target="PaktWG8LnVJk3cDpF99z-23" edge="1">
          <mxGeometry relative="1" as="geometry" />
        </mxCell>
        <mxCell id="PaktWG8LnVJk3cDpF99z-6" value="producto3 = &quot;3. Pantalon de cuadros&quot;" style="rounded=0;whiteSpace=wrap;html=1;" parent="1" vertex="1">
          <mxGeometry x="338.75" y="520" width="120" height="40" as="geometry" />
        </mxCell>
        <mxCell id="PaktWG8LnVJk3cDpF99z-38" style="edgeStyle=orthogonalEdgeStyle;rounded=0;orthogonalLoop=1;jettySize=auto;html=1;exitX=0.5;exitY=1;exitDx=0;exitDy=0;entryX=0.5;entryY=0;entryDx=0;entryDy=0;" parent="1" source="PaktWG8LnVJk3cDpF99z-14" target="PaktWG8LnVJk3cDpF99z-22" edge="1">
          <mxGeometry relative="1" as="geometry" />
        </mxCell>
        <mxCell id="PaktWG8LnVJk3cDpF99z-14" value="producto4 = &quot;4. Aretes de fresa&quot;" style="rounded=0;whiteSpace=wrap;html=1;" parent="1" vertex="1">
          <mxGeometry x="338.75" y="650" width="120" height="40" as="geometry" />
        </mxCell>
        <mxCell id="PaktWG8LnVJk3cDpF99z-29" style="edgeStyle=orthogonalEdgeStyle;rounded=0;orthogonalLoop=1;jettySize=auto;html=1;" parent="1" source="PaktWG8LnVJk3cDpF99z-15" target="PaktWG8LnVJk3cDpF99z-16" edge="1">
          <mxGeometry relative="1" as="geometry" />
        </mxCell>
        <mxCell id="PaktWG8LnVJk3cDpF99z-15" value="Escribir &quot;|| catalogo ||&quot;" style="shape=parallelogram;perimeter=parallelogramPerimeter;whiteSpace=wrap;html=1;fixedSize=1;" parent="1" vertex="1">
          <mxGeometry x="275" y="138" width="250" height="30" as="geometry" />
        </mxCell>
        <mxCell id="PaktWG8LnVJk3cDpF99z-30" style="edgeStyle=orthogonalEdgeStyle;rounded=0;orthogonalLoop=1;jettySize=auto;html=1;exitX=0.5;exitY=1;exitDx=0;exitDy=0;entryX=0.5;entryY=0;entryDx=0;entryDy=0;" parent="1" source="PaktWG8LnVJk3cDpF99z-16" target="PaktWG8LnVJk3cDpF99z-17" edge="1">
          <mxGeometry relative="1" as="geometry" />
        </mxCell>
        <mxCell id="PaktWG8LnVJk3cDpF99z-16" value="Escribir &quot;||0. carrito ||&quot;" style="shape=parallelogram;perimeter=parallelogramPerimeter;whiteSpace=wrap;html=1;fixedSize=1;" parent="1" vertex="1">
          <mxGeometry x="266.25" y="190" width="270" height="30" as="geometry" />
        </mxCell>
        <mxCell id="PaktWG8LnVJk3cDpF99z-31" style="edgeStyle=orthogonalEdgeStyle;rounded=0;orthogonalLoop=1;jettySize=auto;html=1;exitX=0.5;exitY=1;exitDx=0;exitDy=0;entryX=0.5;entryY=0;entryDx=0;entryDy=0;" parent="1" source="PaktWG8LnVJk3cDpF99z-17" target="PaktWG8LnVJk3cDpF99z-3" edge="1">
          <mxGeometry relative="1" as="geometry" />
        </mxCell>
        <mxCell id="PaktWG8LnVJk3cDpF99z-17" value="Escribir &quot;&quot;" style="shape=parallelogram;perimeter=parallelogramPerimeter;whiteSpace=wrap;html=1;fixedSize=1;" parent="1" vertex="1">
          <mxGeometry x="338.75" y="250" width="122.5" height="30" as="geometry" />
        </mxCell>
        <mxCell id="PaktWG8LnVJk3cDpF99z-33" style="edgeStyle=orthogonalEdgeStyle;rounded=0;orthogonalLoop=1;jettySize=auto;html=1;exitX=0.5;exitY=1;exitDx=0;exitDy=0;entryX=0.5;entryY=0;entryDx=0;entryDy=0;" parent="1" source="PaktWG8LnVJk3cDpF99z-18" target="PaktWG8LnVJk3cDpF99z-4" edge="1">
          <mxGeometry relative="1" as="geometry" />
        </mxCell>
        <mxCell id="PaktWG8LnVJk3cDpF99z-18" value="Escribir producto1" style="shape=parallelogram;perimeter=parallelogramPerimeter;whiteSpace=wrap;html=1;fixedSize=1;" parent="1" vertex="1">
          <mxGeometry x="325" y="360" width="150" height="30" as="geometry" />
        </mxCell>
        <mxCell id="PaktWG8LnVJk3cDpF99z-35" style="edgeStyle=orthogonalEdgeStyle;rounded=0;orthogonalLoop=1;jettySize=auto;html=1;exitX=0.5;exitY=1;exitDx=0;exitDy=0;entryX=0.5;entryY=0;entryDx=0;entryDy=0;" parent="1" source="PaktWG8LnVJk3cDpF99z-20" target="PaktWG8LnVJk3cDpF99z-6" edge="1">
          <mxGeometry relative="1" as="geometry" />
        </mxCell>
        <mxCell id="PaktWG8LnVJk3cDpF99z-20" value="Escribir producto2" style="shape=parallelogram;perimeter=parallelogramPerimeter;whiteSpace=wrap;html=1;fixedSize=1;" parent="1" vertex="1">
          <mxGeometry x="326.25" y="470" width="150" height="30" as="geometry" />
        </mxCell>
        <mxCell id="PaktWG8LnVJk3cDpF99z-41" style="edgeStyle=orthogonalEdgeStyle;rounded=0;orthogonalLoop=1;jettySize=auto;html=1;exitX=0.5;exitY=1;exitDx=0;exitDy=0;entryX=0.5;entryY=0;entryDx=0;entryDy=0;" parent="1" source="PaktWG8LnVJk3cDpF99z-21" target="PaktWG8LnVJk3cDpF99z-26" edge="1">
          <mxGeometry relative="1" as="geometry" />
        </mxCell>
        <mxCell id="PaktWG8LnVJk3cDpF99z-21" value="Escribir producto5" style="shape=parallelogram;perimeter=parallelogramPerimeter;whiteSpace=wrap;html=1;fixedSize=1;" parent="1" vertex="1">
          <mxGeometry x="323.75" y="880" width="150" height="30" as="geometry" />
        </mxCell>
        <mxCell id="PaktWG8LnVJk3cDpF99z-39" style="edgeStyle=orthogonalEdgeStyle;rounded=0;orthogonalLoop=1;jettySize=auto;html=1;exitX=0.5;exitY=1;exitDx=0;exitDy=0;entryX=0.5;entryY=0;entryDx=0;entryDy=0;" parent="1" source="PaktWG8LnVJk3cDpF99z-22" target="PaktWG8LnVJk3cDpF99z-5" edge="1">
          <mxGeometry relative="1" as="geometry" />
        </mxCell>
        <mxCell id="PaktWG8LnVJk3cDpF99z-22" value="Escribir producto4" style="shape=parallelogram;perimeter=parallelogramPerimeter;whiteSpace=wrap;html=1;fixedSize=1;" parent="1" vertex="1">
          <mxGeometry x="325" y="730" width="150" height="30" as="geometry" />
        </mxCell>
        <mxCell id="PaktWG8LnVJk3cDpF99z-37" style="edgeStyle=orthogonalEdgeStyle;rounded=0;orthogonalLoop=1;jettySize=auto;html=1;exitX=0.5;exitY=1;exitDx=0;exitDy=0;entryX=0.5;entryY=0;entryDx=0;entryDy=0;" parent="1" source="PaktWG8LnVJk3cDpF99z-23" target="PaktWG8LnVJk3cDpF99z-14" edge="1">
          <mxGeometry relative="1" as="geometry" />
        </mxCell>
        <mxCell id="PaktWG8LnVJk3cDpF99z-23" value="Escribir producto3" style="shape=parallelogram;perimeter=parallelogramPerimeter;whiteSpace=wrap;html=1;fixedSize=1;" parent="1" vertex="1">
          <mxGeometry x="323.75" y="589.5" width="150" height="30" as="geometry" />
        </mxCell>
        <mxCell id="PaktWG8LnVJk3cDpF99z-25" value="fin" style="ellipse;whiteSpace=wrap;html=1;" parent="1" vertex="1">
          <mxGeometry x="338.75" y="1110" width="120" height="80" as="geometry" />
        </mxCell>
        <mxCell id="PaktWG8LnVJk3cDpF99z-42" style="edgeStyle=orthogonalEdgeStyle;rounded=0;orthogonalLoop=1;jettySize=auto;html=1;exitX=0.5;exitY=1;exitDx=0;exitDy=0;entryX=0.5;entryY=0;entryDx=0;entryDy=0;" parent="1" source="PaktWG8LnVJk3cDpF99z-26" target="PaktWG8LnVJk3cDpF99z-27" edge="1">
          <mxGeometry relative="1" as="geometry" />
        </mxCell>
        <mxCell id="PaktWG8LnVJk3cDpF99z-26" value="codigo..." style="rounded=0;whiteSpace=wrap;html=1;" parent="1" vertex="1">
          <mxGeometry x="338.75" y="940" width="120" height="30" as="geometry" />
        </mxCell>
        <mxCell id="PaktWG8LnVJk3cDpF99z-43" style="edgeStyle=orthogonalEdgeStyle;rounded=0;orthogonalLoop=1;jettySize=auto;html=1;exitX=0.5;exitY=1;exitDx=0;exitDy=0;entryX=0.5;entryY=0;entryDx=0;entryDy=0;" parent="1" source="PaktWG8LnVJk3cDpF99z-27" target="PaktWG8LnVJk3cDpF99z-25" edge="1">
          <mxGeometry relative="1" as="geometry" />
        </mxCell>
        <mxCell id="PaktWG8LnVJk3cDpF99z-44" value="FALSO" style="edgeLabel;html=1;align=center;verticalAlign=middle;resizable=0;points=[];" parent="PaktWG8LnVJk3cDpF99z-43" vertex="1" connectable="0">
          <mxGeometry x="-0.2918" y="-3" relative="1" as="geometry">
            <mxPoint as="offset" />
          </mxGeometry>
        </mxCell>
        <mxCell id="PaktWG8LnVJk3cDpF99z-45" style="edgeStyle=orthogonalEdgeStyle;rounded=0;orthogonalLoop=1;jettySize=auto;html=1;entryX=0;entryY=0.5;entryDx=0;entryDy=0;" parent="1" source="PaktWG8LnVJk3cDpF99z-27" target="PaktWG8LnVJk3cDpF99z-15" edge="1">
          <mxGeometry relative="1" as="geometry">
            <mxPoint x="70" y="140" as="targetPoint" />
            <Array as="points">
              <mxPoint x="40" y="1015" />
              <mxPoint x="40" y="140" />
              <mxPoint x="285" y="140" />
            </Array>
          </mxGeometry>
        </mxCell>
        <mxCell id="PaktWG8LnVJk3cDpF99z-46" value="VERDADERO" style="edgeLabel;html=1;align=center;verticalAlign=middle;resizable=0;points=[];" parent="PaktWG8LnVJk3cDpF99z-45" vertex="1" connectable="0">
          <mxGeometry x="0.1383" y="-2" relative="1" as="geometry">
            <mxPoint as="offset" />
          </mxGeometry>
        </mxCell>
        <mxCell id="PaktWG8LnVJk3cDpF99z-27" value="fin bucle" style="rhombus;whiteSpace=wrap;html=1;" parent="1" vertex="1">
          <mxGeometry x="360" y="980" width="80" height="70" as="geometry" />
        </mxCell>
      </root>
    </mxGraphModel>
  </diagram>
</mxfile>
